<?xml version="1.0" encoding="UTF-8" standalone="no"?>
<!-- Created with Sodipodi ("http://www.sodipodi.com/") -->

<svg
   xmlns:dc="http://purl.org/dc/elements/1.1/"
   xmlns:cc="http://creativecommons.org/ns#"
   xmlns:rdf="http://www.w3.org/1999/02/22-rdf-syntax-ns#"
   xmlns:svg="http://www.w3.org/2000/svg"
   xmlns="http://www.w3.org/2000/svg"
   xmlns:sodipodi="http://sodipodi.sourceforge.net/DTD/sodipodi-0.dtd"
   xmlns:inkscape="http://www.inkscape.org/namespaces/inkscape"
   id="svg1527"
   sodipodi:version="0.32"
   width="107.76000pt"
   height="23.370000pt"
   sodipodi:docname="logo.svg"
   inkscape:version="0.46+devel"
   inkscape:export-filename="/home/amf/chroma/resources/logonew.png"
   inkscape:export-xdpi="267.26001"
   inkscape:export-ydpi="267.26001"
   version="1.1">
  <title
     id="title2818">Copyright (C) 2010 Amf</title>
  <metadata
     id="metadata14">
    <rdf:RDF>
      <cc:Work
         rdf:about="">
        <dc:format>image/svg+xml</dc:format>
        <dc:type
           rdf:resource="http://purl.org/dc/dcmitype/StillImage" />
        <dc:title>Copyright (C) 2010 Amf</dc:title>
      </cc:Work>
    </rdf:RDF>
  </metadata>
  <defs
     id="defs1529">
    <inkscape:perspective
       sodipodi:type="inkscape:persp3d"
       inkscape:vp_x="0 : 14.606251 : 1"
       inkscape:vp_y="0 : 1000 : 0"
       inkscape:vp_z="134.7 : 14.606251 : 1"
       inkscape:persp3d-origin="67.349998 : 9.7375005 : 1"
       id="perspective13" />
  </defs>
  <sodipodi:namedview
     id="base"
     inkscape:zoom="8.1393586"
     inkscape:cx="87.875752"
     inkscape:cy="16.668051"
     inkscape:window-width="962"
     inkscape:window-height="931"
     inkscape:window-x="111"
     inkscape:window-y="-46"
     inkscape:current-layer="svg1527"
     showgrid="false"
     inkscape:window-maximized="0" />
  <rect
     style="font-size:12px;fill:#ffffff;fill-opacity:0;fill-rule:evenodd;stroke-width:1pt;stroke-linecap:round"
     id="rect1751"
     width="134.70000"
     height="29.209999"
     x="0.0000000"
     y="0.0025024414" />
  <path
     style="font-size:32px;font-weight:bold;fill:#ff9999;fill-opacity:1;fill-rule:evenodd;stroke:#ff0000;stroke-opacity:1;font-family:Bitstream Vera Sans Mono;stroke-linecap:round"
     d="M 17.453125,9.8062518 L 17.453125,14.368752 C 16.692692,13.847932 15.927068,13.462516 15.156250,13.212502 C 14.395820,12.962516 13.604154,12.837516 12.781250,12.837502 C 11.218739,12.837516 9.9999906,13.295849 9.1250000,14.212502 C 8.2604090,15.118764 7.8281178,16.389596 7.8281250,18.025002 C 7.8281178,19.660426 8.2604090,20.936467 9.1250000,21.853127 C 9.9999906,22.759381 11.218739,23.212506 12.781250,23.212502 C 13.656237,23.212506 14.484361,23.082298 15.265625,22.821877 C 16.057276,22.561465 16.786442,22.176049 17.453125,21.665627 L 17.453125,26.243752 C 16.578109,26.566669 15.687485,26.806252 14.781250,26.962502 C 13.885403,27.129169 12.984363,27.212502 12.078125,27.212502 C 8.9218667,27.212502 6.4531192,26.405211 4.6718750,24.790627 C 2.8906227,23.165631 1.9999986,20.910425 2.0000000,18.025002 C 1.9999986,15.139597 2.8906227,12.889600 4.6718750,11.275002 C 6.4531192,9.6500198 8.9218667,8.8375198 12.078125,8.8375018 C 12.994779,8.8375198 13.895820,8.9208538 14.781250,9.0875018 C 15.677068,9.2437698 16.567692,9.4833528 17.453125,9.8062518"
     id="text1312" />
  <path
     style="font-size:32px;font-weight:bold;fill:#ffff33;fill-opacity:1;fill-rule:evenodd;stroke:#ffa000;stroke-opacity:1;font-family:Bitstream Vera Sans;stroke-linecap:round"
     d="M 39.906250,16.103127 L 39.906250,26.759377 L 34.281250,26.759377 L 34.281250,25.025002 L 34.281250,18.634377 C 34.281235,17.103137 34.244777,16.051055 34.171875,15.478127 C 34.109361,14.905223 33.994777,14.483348 33.828125,14.212502 C 33.609361,13.847932 33.312486,13.566682 32.937500,13.368752 C 32.562487,13.160433 32.135404,13.056266 31.656250,13.056252 C 30.489572,13.056266 29.572907,13.509391 28.906250,14.415627 C 28.239575,15.311472 27.906242,16.556263 27.906250,18.150002 L 27.906250,26.759377 L 22.312500,26.759377 L 22.312500,2.4468768 L 27.906250,2.4468768 L 27.906250,11.821877 C 28.749991,10.801060 29.645823,10.051061 30.593750,9.5718768 C 31.541655,9.0823118 32.588529,8.8375198 33.734375,8.8375018 C 35.755192,8.8375198 37.286441,9.4573108 38.328125,10.696877 C 39.380189,11.936476 39.906230,13.738557 39.906250,16.103127"
     id="path1361" />
  <path
     style="font-size:32px;font-weight:bold;fill:#99ff99;fill-opacity:1;fill-rule:evenodd;stroke:#00cc00;stroke-opacity:1;font-family:Bitstream Vera Sans;stroke-linecap:round"
     d="M 58.125000,14.025002 C 57.635401,13.795849 57.145819,13.629182 56.656250,13.525002 C 56.177070,13.410432 55.692695,13.353141 55.203125,13.353127 C 53.765614,13.353141 52.656240,13.816682 51.875000,14.743752 C 51.104158,15.660430 50.718742,16.978137 50.718750,18.696877 L 50.718750,26.759377 L 45.125000,26.759377 L 45.125000,9.2593768 L 50.718750,9.2593768 L 50.718750,12.134377 C 51.437491,10.988560 52.260407,10.155227 53.187500,9.6343768 C 54.124988,9.1031448 55.244779,8.8375198 56.546875,8.8375018 C 56.734361,8.8375198 56.937486,8.8479368 57.156250,8.8687518 C 57.374985,8.8791868 57.692693,8.9104368 58.109375,8.9625018 L 58.125000,14.025002"
     id="path1359" />
  <path
     id="path1357"
     style="font-size:32px;font-weight:bold;fill:#66b3ff;fill-opacity:1;fill-rule:evenodd;stroke:#0080ff;stroke-opacity:1;font-family:Bitstream Vera Sans Mono;stroke-linecap:round"
     d="M 69.265625,12.837502 C 68.026032,12.837516 67.078116,13.285433 66.421875,14.181252 C 65.776034,15.066681 65.453118,16.347930 65.453125,18.025002 C 65.453118,19.702093 65.776034,20.988550 66.421875,21.884377 C 67.078116,22.769798 68.026032,23.212506 69.265625,23.212502 C 70.484363,23.212506 71.416653,22.769798 72.062500,21.884377 C 72.708319,20.988550 73.031235,19.702093 73.031250,18.025002 C 73.031235,16.347930 72.708319,15.066681 72.062500,14.181252 C 71.416653,13.285433 70.484363,12.837516 69.265625,12.837502 M 69.265625,8.8375018 C 72.276028,8.8375198 74.624984,9.6500198 76.312500,11.275002 C 78.010397,12.900016 78.859354,15.150014 78.859375,18.025002 C 78.859354,20.900008 78.010397,23.150006 76.312500,24.775002 C 74.624984,26.400003 72.276028,27.212502 69.265625,27.212502 C 66.244784,27.212502 63.880203,26.400003 62.171875,24.775002 C 60.473956,23.150006 59.624999,20.900008 59.625000,18.025002 C 59.624999,15.150014 60.473956,12.900016 62.171875,11.275002 C 63.880203,9.6500198 66.244784,8.8375198 69.265625,8.8375018" />
  <path
     style="font-size:32px;font-weight:bold;fill:#9999ff;fill-opacity:1;fill-rule:evenodd;stroke:#0000ff;stroke-opacity:1;font-family:Bitstream Vera Sans;stroke-linecap:round"
     d="M 99.156250,12.165627 C 99.864564,11.082310 100.70310,10.259394 101.67188,9.6968768 C 102.65102,9.1239778 103.72393,8.8375198 104.89062,8.8375018 C 106.90102,8.8375198 108.43226,9.4573108 109.48438,10.696877 C 110.53643,11.936476 111.06247,13.738557 111.06250,16.103127 L 111.06250,26.759377 L 105.43750,26.759377 L 105.43750,17.634377 C 105.44789,17.498970 105.45310,17.358345 105.45312,17.212502 C 105.46352,17.066679 105.46872,16.858346 105.46875,16.587502 C 105.46872,15.347931 105.28643,14.452098 104.92188,13.900002 C 104.55727,13.337516 103.96873,13.056266 103.15625,13.056252 C 102.09373,13.056266 101.27081,13.493766 100.68750,14.368752 C 100.11456,15.243764 99.817689,16.509388 99.796875,18.165627 L 99.796875,26.759377 L 94.171875,26.759377 L 94.171875,17.634377 C 94.171861,15.696889 94.005195,14.452098 93.671875,13.900002 C 93.338529,13.337516 92.744779,13.056266 91.890625,13.056252 C 90.817698,13.056266 89.989574,13.498974 89.406250,14.384377 C 88.822908,15.259389 88.531242,16.514596 88.531250,18.150002 L 88.531250,26.759377 L 82.906250,26.759377 L 82.906250,9.2593768 L 88.531250,9.2593768 L 88.531250,11.821877 C 89.218741,10.832310 90.005199,10.087519 90.890625,9.5875018 C 91.786447,9.0875198 92.770821,8.8375198 93.843750,8.8375018 C 95.052069,8.8375198 96.119776,9.1291868 97.046875,9.7125018 C 97.973941,10.295852 98.677065,11.113560 99.156250,12.165627"
     id="path1353" />
  <path
     id="path1351"
     style="font-size:32px;font-weight:bold;fill:#cc99ff;fill-opacity:1;fill-rule:evenodd;stroke:#8000ff;font-family:Bitstream Vera Sans Mono;stroke-linecap:round;stroke-opacity:1"
     d="M 124.15625,18.884377 C 122.98957,18.884385 122.10937,19.082302 121.51562,19.478127 C 120.93228,19.873968 120.64062,20.457300 120.64062,21.228127 C 120.64062,21.936466 120.87499,22.493757 121.34375,22.900002 C 121.82291,23.295839 122.48437,23.493756 123.32812,23.493752 C 124.38020,23.493756 125.26561,23.118756 125.98438,22.368752 C 126.70311,21.608341 127.06249,20.660425 127.06250,19.525002 L 127.06250,18.884377 L 124.15625,18.884377 M 132.70312,16.775002 L 132.70312,26.759377 L 127.06250,26.759377 L 127.06250,24.165627 C 126.31249,25.228129 125.46874,26.004170 124.53125,26.493752 C 123.59374,26.972919 122.45312,27.212502 121.10938,27.212502 C 119.29687,27.212502 117.82291,26.686461 116.68750,25.634377 C 115.56250,24.571880 115.00000,23.196881 115.00000,21.509377 C 115.00000,19.457301 115.70312,17.952095 117.10938,16.993752 C 118.52604,16.035430 120.74478,15.556264 123.76562,15.556252 L 127.06250,15.556252 L 127.06250,15.118752 C 127.06249,14.233348 126.71353,13.587516 126.01562,13.181252 C 125.31770,12.764600 124.22916,12.556267 122.75000,12.556252 C 121.55208,12.556267 120.43749,12.676058 119.40625,12.915627 C 118.37500,13.155224 117.41666,13.514599 116.53125,13.993752 L 116.53125,9.7281268 C 117.72916,9.4364778 118.93229,9.2177278 120.14062,9.0718768 C 121.34895,8.9156448 122.55728,8.8375198 123.76562,8.8375018 C 126.92186,8.8375198 129.19790,9.4625198 130.59375,10.712502 C 131.99998,11.952101 132.70311,13.972932 132.70312,16.775002" />
</svg>
